<?xml version="1.0" ?><!DOCTYPE svg  PUBLIC '-//W3C//DTD SVG 1.1//EN'  'http://www.w3.org/Graphics/SVG/1.1/DTD/svg11.dtd'><svg enable-background="new 0 0 24 24" height="24px" id="Layer_1" version="1.1" viewBox="0 0 24 24" width="24px" xml:space="preserve" xmlns="http://www.w3.org/2000/svg" xmlns:xlink="http://www.w3.org/1999/xlink"><g id="icon"><circle cx="12" cy="12" fill="#5189AF" r="11"/><path d="M12.0139,7.3301c1.5255,0,1.7062,0.0058,2.3086,0.0333c0.557,0.0254,0.8595,0.1185,1.0609,0.1967c0.2667,0.1036,0.457,0.2275,0.6569,0.4274c0.1999,0.1999,0.3238,0.3902,0.4274,0.6569c0.0782,0.2013,0.1713,0.5039,0.1967,1.0609c0.0275,0.6025,0.0333,0.7831,0.0333,2.3086c0,1.5255,-0.0058,1.7062,-0.0333,2.3086c-0.0254,0.5571,-0.1185,0.8596,-0.1967,1.0609c-0.1036,0.2666,-0.2274,0.457,-0.4274,0.6569c-0.1999,0.1999,-0.3902,0.3237,-0.6569,0.4274c-0.2013,0.0782,-0.5039,0.1713,-1.0609,0.1967c-0.6024,0.0275,-0.783,0.0333,-2.3086,0.0333c-1.5256,0,-1.7063,-0.0058,-2.3086,-0.0333c-0.557,-0.0254,-0.8595,-0.1185,-1.0609,-0.1967c-0.2667,-0.1036,-0.457,-0.2275,-0.6569,-0.4274c-0.1999,-0.1999,-0.3237,-0.3903,-0.4274,-0.6569c-0.0782,-0.2013,-0.1713,-0.5039,-0.1967,-1.0609c-0.0275,-0.6024,-0.0333,-0.7831,-0.0333,-2.3086c0,-1.5255,0.0058,-1.7062,0.0333,-2.3086c0.0254,-0.557,0.1185,-0.8595,0.1967,-1.0609c0.1036,-0.2667,0.2275,-0.457,0.4274,-0.6569c0.1999,-0.1999,0.3902,-0.3237,0.6569,-0.4274c0.2013,-0.0782,0.5039,-0.1713,1.0609,-0.1967C10.3077,7.3359,10.4884,7.3301,12.0139,7.3301M12.0139,6.3007c-1.5516,0,-1.7462,0.0065,-2.3556,0.0344c-0.6081,0.0278,-1.0234,0.1243,-1.3868,0.2656c-0.3757,0.146,-0.6943,0.3413,-1.0119,0.659c-0.3176,0.3176,-0.513,0.6363,-0.659,1.0119c-0.1413,0.3634,-0.2378,0.7787,-0.2656,1.3869c-0.0278,0.6094,-0.0344,0.8039,-0.0344,2.3555c0,1.5517,0.0065,1.7462,0.0344,2.3556c0.0277,0.6081,0.1243,1.0234,0.2656,1.3869c0.146,0.3757,0.3413,0.6943,0.659,1.0119c0.3176,0.3176,0.6362,0.513,1.0119,0.659c0.3634,0.1412,0.7787,0.2378,1.3868,0.2656c0.6094,0.0278,0.8039,0.0344,2.3556,0.0344c1.5516,0,1.7462,-0.0066,2.3556,-0.0344c0.6081,-0.0278,1.0234,-0.1243,1.3868,-0.2656c0.3757,-0.146,0.6943,-0.3413,1.0119,-0.659c0.3176,-0.3176,0.513,-0.6363,0.659,-1.0119c0.1413,-0.3634,0.2378,-0.7787,0.2656,-1.3869c0.0278,-0.6094,0.0344,-0.8039,0.0344,-2.3556c0,-1.5516,-0.0065,-1.7461,-0.0344,-2.3555c-0.0277,-0.6081,-0.1243,-1.0234,-0.2656,-1.3869c-0.146,-0.3757,-0.3413,-0.6943,-0.659,-1.0119c-0.3176,-0.3176,-0.6362,-0.513,-1.0119,-0.659c-0.3634,-0.1412,-0.7787,-0.2378,-1.3868,-0.2656C13.7601,6.3072,13.5655,6.3007,12.0139,6.3007M12.0139,9.0801c-1.6203,0,-2.9338,1.3135,-2.9338,2.9338c0,1.6203,1.3135,2.9338,2.9338,2.9338c1.6203,0,2.9338,-1.3135,2.9338,-2.9338C14.9477,10.3936,13.6342,9.0801,12.0139,9.0801M12.0139,13.9183c-1.0518,0,-1.9044,-0.8526,-1.9044,-1.9044s0.8526,-1.9044,1.9044,-1.9044c1.0518,0,1.9044,0.8526,1.9044,1.9044S13.0657,13.9183,12.0139,13.9183M15.7492,8.9642c0,-0.3787,-0.3069,-0.6856,-0.6856,-0.6856c-0.3786,0,-0.6856,0.3069,-0.6856,0.6856c0,0.3786,0.307,0.6856,0.6856,0.6856C15.4423,9.6498,15.7492,9.3428,15.7492,8.9642" fill="#FFFFFF"/><path d="M4.2218,19.7782C6.2124,21.7688,8.9624,23,12,23c6.0751,0,11,-4.9249,11,-11c0,-3.0376,-1.2312,-5.7876,-3.2218,-7.7782L4.2218,19.7782z" fill="#231F20" opacity="0.1"/></g></svg>